<?xml version="1.0" encoding="utf-8"?>
<!-- Generator: Adobe Illustrator 16.0.4, SVG Export Plug-In . SVG Version: 6.00 Build 0)  -->
<!DOCTYPE svg PUBLIC "-//W3C//DTD SVG 1.1//EN" "http://www.w3.org/Graphics/SVG/1.1/DTD/svg11.dtd">
<svg version="1.1" id="_x30_1" xmlns="http://www.w3.org/2000/svg" xmlns:xlink="http://www.w3.org/1999/xlink" x="0px" y="0px"
	 width="1140px" height="350px" viewBox="0 0 1140 350" enable-background="new 0 0 1140 350" xml:space="preserve">
<linearGradient id="SVGID_1_" gradientUnits="userSpaceOnUse" x1="343.0449" y1="268.6826" x2="471.2156" y2="140.5119">
	<stop  offset="0" style="stop-color:#E6E6E6"/>
	<stop  offset="1" style="stop-color:#FFFFFF"/>
</linearGradient>
<polygon fill="url(#SVGID_1_)" enable-background="new    " points="325.692,251.33 407.061,298.031 407.136,298.039 
	488.608,251.338 488.608,251.322 488.608,157.917 488.608,157.904 407.38,111.212 407.02,111.212 406.682,111.212 325.692,157.817 
	325.762,157.917 325.762,251.322 "/>
<linearGradient id="SVGID_2_" gradientUnits="userSpaceOnUse" x1="-889.1582" y1="-661.9136" x2="-726.2383" y2="-661.9136" gradientTransform="matrix(1 0 0 -1 1052 -551.5)">
	<stop  offset="0" style="stop-color:#000000"/>
	<stop  offset="1" style="stop-color:#FFFFFF"/>
</linearGradient>
<polygon opacity="0.1" fill="url(#SVGID_2_)" enable-background="new    " points="162.842,157.117 244.215,203.818 244.29,203.827 
	325.762,157.125 325.762,157.109 325.762,63.705 325.762,63.692 244.535,17 244.172,17 243.837,17 162.842,63.605 162.916,63.705 
	162.916,157.109 "/>
<polygon fill="#F2F2F2" enable-background="new    " points="815.23,250.852 896.596,297.555 896.674,297.562 978.148,250.859 
	978.148,250.846 978.148,157.439 978.148,157.426 896.914,110.487 896.555,110.487 896.219,110.487 815.23,157.214 815.303,157.439 
	815.303,250.846 "/>
<linearGradient id="SVGID_3_" gradientUnits="userSpaceOnUse" x1="-563.4629" y1="-661.9136" x2="-400.543" y2="-661.9136" gradientTransform="matrix(1 0 0 -1 1052 -551.5)">
	<stop  offset="0" style="stop-color:#FFFFFF"/>
	<stop  offset="1" style="stop-color:#E6E6E6"/>
</linearGradient>
<polygon fill="url(#SVGID_3_)" enable-background="new    " points="488.537,157.117 569.908,203.818 569.982,203.827 
	651.457,157.125 651.457,157.109 651.457,63.705 651.457,63.692 570.227,17 569.865,17 569.527,17 488.537,63.605 488.608,63.705 
	488.608,157.109 "/>
<linearGradient id="SVGID_4_" gradientUnits="userSpaceOnUse" x1="-953.2715" y1="-644.8174" x2="-825.0684" y2="-773.0205" gradientTransform="matrix(1 0 0 -1 1052 -551.5)">
	<stop  offset="0" style="stop-color:#FFFFFF"/>
	<stop  offset="1" style="stop-color:#E6E6E6"/>
</linearGradient>
<polygon fill="url(#SVGID_4_)" enable-background="new    " points="81.384,204.146 162.752,250.849 162.826,250.856 244.3,204.151 
	244.3,204.137 244.3,110.734 244.3,110.72 163.075,64.085 162.712,64.085 162.374,64.085 81.384,110.661 81.451,110.734 
	81.451,204.137 "/>
<linearGradient id="SVGID_5_" gradientUnits="userSpaceOnUse" x1="716.2783" y1="221.5947" x2="587.6429" y2="92.9593">
	<stop  offset="0" style="stop-color:#FFFFFF"/>
	<stop  offset="1" style="stop-color:#E6E6E6"/>
</linearGradient>
<polygon fill="url(#SVGID_5_)" enable-background="new    " points="570.457,203.984 652.08,250.688 652.281,250.695 
	733.879,203.993 733.879,203.979 733.879,110.574 733.879,110.56 652.648,64.246 652.287,64.246 651.949,64.246 570.457,110.661 
	570.027,110.574 570.027,203.979 "/>
<linearGradient id="SVGID_6_" gradientUnits="userSpaceOnUse" x1="-155.3145" y1="-708.9712" x2="7.6113" y2="-708.9712" gradientTransform="matrix(1 0 0 -1 1052 -551.5)">
	<stop  offset="0" style="stop-color:#E6E6E6"/>
	<stop  offset="1" style="stop-color:#FFFFFF"/>
</linearGradient>
<polygon fill="url(#SVGID_6_)" enable-background="new    " points="896.686,204.175 978.053,250.876 978.129,250.885 
	1059.611,204.183 1059.611,204.167 1059.611,110.763 1059.611,110.75 978.375,64.058 978.01,64.058 977.676,64.058 896.686,110.663 
	896.76,110.763 896.76,204.167 "/>
<linearGradient id="SVGID_7_" gradientUnits="userSpaceOnUse" x1="-318.1211" y1="-708.9712" x2="-155.2031" y2="-708.9712" gradientTransform="matrix(1 0 0 -1 1052 -551.5)">
	<stop  offset="0" style="stop-color:#FFFFFF"/>
	<stop  offset="1" style="stop-color:#E6E6E6"/>
</linearGradient>
<polygon fill="url(#SVGID_7_)" enable-background="new    " points="733.879,204.175 815.244,250.876 815.322,250.885 
	896.797,204.183 896.797,204.167 896.797,110.763 896.797,110.749 815.562,64.058 815.203,64.058 814.867,64.058 733.879,110.663 
	733.951,110.763 733.951,204.167 "/>
<polygon fill="#F7F7F7" enable-background="new    " points="488.15,250.653 569.519,297.356 569.593,297.364 651.066,250.661 
	651.066,250.647 651.066,157.241 651.066,157.228 569.838,110.289 569.478,110.289 569.14,110.289 488.15,157.016 488.22,157.241 
	488.22,250.647 "/>
</svg>
